<mxfile host="app.diagrams.net" agent="Mozilla/5.0 (Windows NT 10.0; Win64; x64) AppleWebKit/537.36 (KHTML, like Gecko) Chrome/129.0.0.0 Safari/537.36" version="24.7.16">
  <diagram name="Página-1" id="6nnwO9a1-DeHxxmLDIXC">
    <mxGraphModel dx="1434" dy="746" grid="1" gridSize="10" guides="1" tooltips="1" connect="1" arrows="1" fold="1" page="1" pageScale="1" pageWidth="827" pageHeight="1169" math="0" shadow="0">
      <root>
        <mxCell id="0" />
        <mxCell id="1" parent="0" />
        <mxCell id="WlBfpteR9ME0M3st5vMV-5" style="edgeStyle=orthogonalEdgeStyle;rounded=0;orthogonalLoop=1;jettySize=auto;html=1;exitX=0;exitY=1;exitDx=0;exitDy=0;entryX=0.5;entryY=0;entryDx=0;entryDy=0;" edge="1" parent="1" source="WlBfpteR9ME0M3st5vMV-1" target="WlBfpteR9ME0M3st5vMV-2">
          <mxGeometry relative="1" as="geometry" />
        </mxCell>
        <mxCell id="WlBfpteR9ME0M3st5vMV-6" style="edgeStyle=orthogonalEdgeStyle;rounded=0;orthogonalLoop=1;jettySize=auto;html=1;exitX=0.5;exitY=1;exitDx=0;exitDy=0;" edge="1" parent="1" source="WlBfpteR9ME0M3st5vMV-1" target="WlBfpteR9ME0M3st5vMV-3">
          <mxGeometry relative="1" as="geometry" />
        </mxCell>
        <mxCell id="WlBfpteR9ME0M3st5vMV-7" style="edgeStyle=orthogonalEdgeStyle;rounded=0;orthogonalLoop=1;jettySize=auto;html=1;exitX=1;exitY=1;exitDx=0;exitDy=0;entryX=0.5;entryY=0;entryDx=0;entryDy=0;" edge="1" parent="1" source="WlBfpteR9ME0M3st5vMV-1" target="WlBfpteR9ME0M3st5vMV-4">
          <mxGeometry relative="1" as="geometry" />
        </mxCell>
        <mxCell id="WlBfpteR9ME0M3st5vMV-18" style="edgeStyle=orthogonalEdgeStyle;rounded=0;orthogonalLoop=1;jettySize=auto;html=1;entryX=0;entryY=0.5;entryDx=0;entryDy=0;" edge="1" parent="1" source="WlBfpteR9ME0M3st5vMV-1" target="WlBfpteR9ME0M3st5vMV-17">
          <mxGeometry relative="1" as="geometry" />
        </mxCell>
        <mxCell id="WlBfpteR9ME0M3st5vMV-30" style="edgeStyle=orthogonalEdgeStyle;rounded=0;orthogonalLoop=1;jettySize=auto;html=1;exitX=1;exitY=0.75;exitDx=0;exitDy=0;entryX=0.5;entryY=0;entryDx=0;entryDy=0;" edge="1" parent="1" source="WlBfpteR9ME0M3st5vMV-1" target="WlBfpteR9ME0M3st5vMV-29">
          <mxGeometry relative="1" as="geometry">
            <Array as="points">
              <mxPoint x="350" y="175" />
              <mxPoint x="350" y="290" />
              <mxPoint x="410" y="290" />
            </Array>
          </mxGeometry>
        </mxCell>
        <mxCell id="WlBfpteR9ME0M3st5vMV-1" value="DEPARTAMENTOS" style="rounded=0;whiteSpace=wrap;html=1;" vertex="1" parent="1">
          <mxGeometry x="125" y="130" width="120" height="60" as="geometry" />
        </mxCell>
        <mxCell id="WlBfpteR9ME0M3st5vMV-2" value="CÓDIGO_&lt;div&gt;DEPARTAMENTO&lt;/div&gt;" style="ellipse;whiteSpace=wrap;html=1;" vertex="1" parent="1">
          <mxGeometry x="30" y="260" width="90" height="55" as="geometry" />
        </mxCell>
        <mxCell id="WlBfpteR9ME0M3st5vMV-3" value="NOMBRE_&lt;div&gt;DEPARTAMENTO&lt;/div&gt;" style="ellipse;whiteSpace=wrap;html=1;" vertex="1" parent="1">
          <mxGeometry x="140" y="260" width="90" height="55" as="geometry" />
        </mxCell>
        <mxCell id="WlBfpteR9ME0M3st5vMV-4" value="PRESUPUESTO&amp;nbsp;&lt;div&gt;ANUAL&lt;/div&gt;" style="ellipse;whiteSpace=wrap;html=1;" vertex="1" parent="1">
          <mxGeometry x="250" y="260" width="90" height="55" as="geometry" />
        </mxCell>
        <mxCell id="WlBfpteR9ME0M3st5vMV-9" value="&lt;b style=&quot;font-weight:normal;&quot; id=&quot;docs-internal-guid-b93b61fd-7fff-f55d-0fdc-ce7259359488&quot;&gt;&lt;span&gt;&amp;nbsp;&lt;/span&gt;&lt;/b&gt;" style="text;whiteSpace=wrap;html=1;" vertex="1" parent="1">
          <mxGeometry x="330" y="380" width="40" height="40" as="geometry" />
        </mxCell>
        <mxCell id="WlBfpteR9ME0M3st5vMV-10" style="edgeStyle=orthogonalEdgeStyle;rounded=0;orthogonalLoop=1;jettySize=auto;html=1;exitX=0;exitY=1;exitDx=0;exitDy=0;entryX=0.5;entryY=0;entryDx=0;entryDy=0;" edge="1" parent="1" source="WlBfpteR9ME0M3st5vMV-13" target="WlBfpteR9ME0M3st5vMV-14">
          <mxGeometry relative="1" as="geometry" />
        </mxCell>
        <mxCell id="WlBfpteR9ME0M3st5vMV-11" style="edgeStyle=orthogonalEdgeStyle;rounded=0;orthogonalLoop=1;jettySize=auto;html=1;exitX=0.5;exitY=1;exitDx=0;exitDy=0;" edge="1" parent="1" source="WlBfpteR9ME0M3st5vMV-13" target="WlBfpteR9ME0M3st5vMV-15">
          <mxGeometry relative="1" as="geometry">
            <Array as="points">
              <mxPoint x="630" y="190" />
            </Array>
          </mxGeometry>
        </mxCell>
        <mxCell id="WlBfpteR9ME0M3st5vMV-12" style="edgeStyle=orthogonalEdgeStyle;rounded=0;orthogonalLoop=1;jettySize=auto;html=1;exitX=1;exitY=1;exitDx=0;exitDy=0;entryX=0.5;entryY=0;entryDx=0;entryDy=0;" edge="1" parent="1" source="WlBfpteR9ME0M3st5vMV-13" target="WlBfpteR9ME0M3st5vMV-16">
          <mxGeometry relative="1" as="geometry" />
        </mxCell>
        <mxCell id="WlBfpteR9ME0M3st5vMV-13" value="CENTROS" style="rounded=0;whiteSpace=wrap;html=1;" vertex="1" parent="1">
          <mxGeometry x="555" y="130" width="120" height="60" as="geometry" />
        </mxCell>
        <mxCell id="WlBfpteR9ME0M3st5vMV-14" value="CÓDIGO_&lt;div&gt;CENTRO&lt;/div&gt;" style="ellipse;whiteSpace=wrap;html=1;" vertex="1" parent="1">
          <mxGeometry x="460" y="260" width="90" height="55" as="geometry" />
        </mxCell>
        <mxCell id="WlBfpteR9ME0M3st5vMV-15" value="NOMBRE_&lt;div&gt;CENTRO&lt;/div&gt;" style="ellipse;whiteSpace=wrap;html=1;" vertex="1" parent="1">
          <mxGeometry x="585" y="260" width="90" height="55" as="geometry" />
        </mxCell>
        <mxCell id="WlBfpteR9ME0M3st5vMV-16" value="DIRECCIÓN_&lt;div&gt;CENTRO&lt;/div&gt;" style="ellipse;whiteSpace=wrap;html=1;" vertex="1" parent="1">
          <mxGeometry x="680" y="260" width="90" height="55" as="geometry" />
        </mxCell>
        <mxCell id="WlBfpteR9ME0M3st5vMV-19" style="edgeStyle=orthogonalEdgeStyle;rounded=0;orthogonalLoop=1;jettySize=auto;html=1;" edge="1" parent="1" source="WlBfpteR9ME0M3st5vMV-17" target="WlBfpteR9ME0M3st5vMV-13">
          <mxGeometry relative="1" as="geometry" />
        </mxCell>
        <mxCell id="WlBfpteR9ME0M3st5vMV-17" value="UBICADO" style="rhombus;whiteSpace=wrap;html=1;" vertex="1" parent="1">
          <mxGeometry x="360" y="135" width="80" height="50" as="geometry" />
        </mxCell>
        <mxCell id="WlBfpteR9ME0M3st5vMV-26" style="edgeStyle=orthogonalEdgeStyle;rounded=0;orthogonalLoop=1;jettySize=auto;html=1;entryX=0.5;entryY=1;entryDx=0;entryDy=0;" edge="1" parent="1" source="WlBfpteR9ME0M3st5vMV-20" target="WlBfpteR9ME0M3st5vMV-22">
          <mxGeometry relative="1" as="geometry" />
        </mxCell>
        <mxCell id="WlBfpteR9ME0M3st5vMV-35" style="edgeStyle=orthogonalEdgeStyle;rounded=0;orthogonalLoop=1;jettySize=auto;html=1;exitX=0.5;exitY=1;exitDx=0;exitDy=0;entryX=0.5;entryY=0;entryDx=0;entryDy=0;" edge="1" parent="1" source="WlBfpteR9ME0M3st5vMV-20" target="WlBfpteR9ME0M3st5vMV-33">
          <mxGeometry relative="1" as="geometry" />
        </mxCell>
        <mxCell id="WlBfpteR9ME0M3st5vMV-36" style="edgeStyle=orthogonalEdgeStyle;rounded=0;orthogonalLoop=1;jettySize=auto;html=1;exitX=1;exitY=1;exitDx=0;exitDy=0;entryX=0.5;entryY=0;entryDx=0;entryDy=0;" edge="1" parent="1" source="WlBfpteR9ME0M3st5vMV-20" target="WlBfpteR9ME0M3st5vMV-34">
          <mxGeometry relative="1" as="geometry" />
        </mxCell>
        <mxCell id="WlBfpteR9ME0M3st5vMV-37" style="edgeStyle=orthogonalEdgeStyle;rounded=0;orthogonalLoop=1;jettySize=auto;html=1;exitX=0;exitY=1;exitDx=0;exitDy=0;entryX=0.5;entryY=0;entryDx=0;entryDy=0;" edge="1" parent="1" source="WlBfpteR9ME0M3st5vMV-20" target="WlBfpteR9ME0M3st5vMV-32">
          <mxGeometry relative="1" as="geometry" />
        </mxCell>
        <mxCell id="WlBfpteR9ME0M3st5vMV-40" style="edgeStyle=orthogonalEdgeStyle;rounded=0;orthogonalLoop=1;jettySize=auto;html=1;exitX=0.25;exitY=1;exitDx=0;exitDy=0;entryX=0.5;entryY=0;entryDx=0;entryDy=0;" edge="1" parent="1" source="WlBfpteR9ME0M3st5vMV-20" target="WlBfpteR9ME0M3st5vMV-38">
          <mxGeometry relative="1" as="geometry">
            <Array as="points">
              <mxPoint x="570" y="530" />
              <mxPoint x="570" y="580" />
              <mxPoint x="555" y="580" />
            </Array>
          </mxGeometry>
        </mxCell>
        <mxCell id="WlBfpteR9ME0M3st5vMV-41" style="edgeStyle=orthogonalEdgeStyle;rounded=0;orthogonalLoop=1;jettySize=auto;html=1;exitX=0.75;exitY=1;exitDx=0;exitDy=0;entryX=0.5;entryY=0;entryDx=0;entryDy=0;" edge="1" parent="1" source="WlBfpteR9ME0M3st5vMV-20" target="WlBfpteR9ME0M3st5vMV-39">
          <mxGeometry relative="1" as="geometry">
            <Array as="points">
              <mxPoint x="660" y="530" />
              <mxPoint x="660" y="580" />
              <mxPoint x="675" y="580" />
            </Array>
          </mxGeometry>
        </mxCell>
        <mxCell id="WlBfpteR9ME0M3st5vMV-50" style="edgeStyle=orthogonalEdgeStyle;rounded=0;orthogonalLoop=1;jettySize=auto;html=1;exitX=0;exitY=0.5;exitDx=0;exitDy=0;entryX=1;entryY=0.5;entryDx=0;entryDy=0;" edge="1" parent="1" source="WlBfpteR9ME0M3st5vMV-20" target="WlBfpteR9ME0M3st5vMV-47">
          <mxGeometry relative="1" as="geometry" />
        </mxCell>
        <mxCell id="WlBfpteR9ME0M3st5vMV-61" style="edgeStyle=orthogonalEdgeStyle;rounded=0;orthogonalLoop=1;jettySize=auto;html=1;exitX=0;exitY=0.75;exitDx=0;exitDy=0;entryX=1;entryY=0.5;entryDx=0;entryDy=0;" edge="1" parent="1" source="WlBfpteR9ME0M3st5vMV-20" target="WlBfpteR9ME0M3st5vMV-60">
          <mxGeometry relative="1" as="geometry">
            <Array as="points">
              <mxPoint x="530" y="515" />
              <mxPoint x="530" y="540" />
              <mxPoint x="440" y="540" />
              <mxPoint x="440" y="635" />
            </Array>
          </mxGeometry>
        </mxCell>
        <mxCell id="WlBfpteR9ME0M3st5vMV-20" value="EMPLEADOS" style="rounded=0;whiteSpace=wrap;html=1;" vertex="1" parent="1">
          <mxGeometry x="555" y="470" width="120" height="60" as="geometry" />
        </mxCell>
        <mxCell id="WlBfpteR9ME0M3st5vMV-22" value="DIRIGE" style="rhombus;whiteSpace=wrap;html=1;" vertex="1" parent="1">
          <mxGeometry x="575" y="390" width="80" height="50" as="geometry" />
        </mxCell>
        <mxCell id="WlBfpteR9ME0M3st5vMV-27" style="edgeStyle=orthogonalEdgeStyle;rounded=0;orthogonalLoop=1;jettySize=auto;html=1;exitX=0.5;exitY=0;exitDx=0;exitDy=0;entryX=0.142;entryY=1.033;entryDx=0;entryDy=0;entryPerimeter=0;" edge="1" parent="1" source="WlBfpteR9ME0M3st5vMV-22" target="WlBfpteR9ME0M3st5vMV-13">
          <mxGeometry relative="1" as="geometry">
            <Array as="points">
              <mxPoint x="615" y="360" />
              <mxPoint x="572" y="360" />
            </Array>
          </mxGeometry>
        </mxCell>
        <mxCell id="WlBfpteR9ME0M3st5vMV-31" style="edgeStyle=orthogonalEdgeStyle;rounded=0;orthogonalLoop=1;jettySize=auto;html=1;exitX=0.5;exitY=1;exitDx=0;exitDy=0;entryX=0.25;entryY=0;entryDx=0;entryDy=0;" edge="1" parent="1" source="WlBfpteR9ME0M3st5vMV-29" target="WlBfpteR9ME0M3st5vMV-20">
          <mxGeometry relative="1" as="geometry" />
        </mxCell>
        <mxCell id="WlBfpteR9ME0M3st5vMV-29" value="TIENE" style="rhombus;whiteSpace=wrap;html=1;" vertex="1" parent="1">
          <mxGeometry x="370" y="340" width="80" height="50" as="geometry" />
        </mxCell>
        <mxCell id="WlBfpteR9ME0M3st5vMV-32" value="&lt;div&gt;TFNO&lt;/div&gt;" style="ellipse;whiteSpace=wrap;html=1;" vertex="1" parent="1">
          <mxGeometry x="460" y="585" width="90" height="55" as="geometry" />
        </mxCell>
        <mxCell id="WlBfpteR9ME0M3st5vMV-33" value="&lt;div&gt;NIF&lt;/div&gt;" style="ellipse;whiteSpace=wrap;html=1;" vertex="1" parent="1">
          <mxGeometry x="570" y="585" width="90" height="55" as="geometry" />
        </mxCell>
        <mxCell id="WlBfpteR9ME0M3st5vMV-34" value="&lt;div&gt;NOMBRE_&lt;/div&gt;&lt;div&gt;EMPLEADO&lt;/div&gt;" style="ellipse;whiteSpace=wrap;html=1;" vertex="1" parent="1">
          <mxGeometry x="680" y="585" width="90" height="55" as="geometry" />
        </mxCell>
        <mxCell id="WlBfpteR9ME0M3st5vMV-38" value="&lt;div&gt;Nº HIJOS&lt;/div&gt;" style="ellipse;whiteSpace=wrap;html=1;" vertex="1" parent="1">
          <mxGeometry x="510" y="670" width="90" height="55" as="geometry" />
        </mxCell>
        <mxCell id="WlBfpteR9ME0M3st5vMV-39" value="SALARIO" style="ellipse;whiteSpace=wrap;html=1;" vertex="1" parent="1">
          <mxGeometry x="630" y="670" width="90" height="55" as="geometry" />
        </mxCell>
        <mxCell id="WlBfpteR9ME0M3st5vMV-45" style="edgeStyle=orthogonalEdgeStyle;rounded=0;orthogonalLoop=1;jettySize=auto;html=1;exitX=0;exitY=1;exitDx=0;exitDy=0;entryX=0.5;entryY=0;entryDx=0;entryDy=0;" edge="1" parent="1" source="WlBfpteR9ME0M3st5vMV-42" target="WlBfpteR9ME0M3st5vMV-43">
          <mxGeometry relative="1" as="geometry" />
        </mxCell>
        <mxCell id="WlBfpteR9ME0M3st5vMV-46" style="edgeStyle=orthogonalEdgeStyle;rounded=0;orthogonalLoop=1;jettySize=auto;html=1;exitX=1;exitY=1;exitDx=0;exitDy=0;entryX=0.5;entryY=0;entryDx=0;entryDy=0;" edge="1" parent="1" source="WlBfpteR9ME0M3st5vMV-42" target="WlBfpteR9ME0M3st5vMV-44">
          <mxGeometry relative="1" as="geometry" />
        </mxCell>
        <mxCell id="WlBfpteR9ME0M3st5vMV-42" value="HABILIDADES" style="rounded=0;whiteSpace=wrap;html=1;" vertex="1" parent="1">
          <mxGeometry x="90" y="385" width="120" height="60" as="geometry" />
        </mxCell>
        <mxCell id="WlBfpteR9ME0M3st5vMV-43" value="&lt;div&gt;DESCRIPCIÓN&lt;/div&gt;" style="ellipse;whiteSpace=wrap;html=1;" vertex="1" parent="1">
          <mxGeometry x="30" y="530" width="90" height="55" as="geometry" />
        </mxCell>
        <mxCell id="WlBfpteR9ME0M3st5vMV-44" value="&lt;div&gt;CÓDIGO&lt;/div&gt;" style="ellipse;whiteSpace=wrap;html=1;" vertex="1" parent="1">
          <mxGeometry x="180" y="530" width="90" height="55" as="geometry" />
        </mxCell>
        <mxCell id="WlBfpteR9ME0M3st5vMV-51" style="edgeStyle=orthogonalEdgeStyle;rounded=0;orthogonalLoop=1;jettySize=auto;html=1;exitX=0;exitY=0.5;exitDx=0;exitDy=0;entryX=1;entryY=0.5;entryDx=0;entryDy=0;" edge="1" parent="1" source="WlBfpteR9ME0M3st5vMV-47" target="WlBfpteR9ME0M3st5vMV-42">
          <mxGeometry relative="1" as="geometry" />
        </mxCell>
        <mxCell id="WlBfpteR9ME0M3st5vMV-47" value="TIENE" style="rhombus;whiteSpace=wrap;html=1;" vertex="1" parent="1">
          <mxGeometry x="340" y="475" width="80" height="50" as="geometry" />
        </mxCell>
        <mxCell id="WlBfpteR9ME0M3st5vMV-57" style="edgeStyle=orthogonalEdgeStyle;rounded=0;orthogonalLoop=1;jettySize=auto;html=1;exitX=0;exitY=1;exitDx=0;exitDy=0;entryX=0.5;entryY=0;entryDx=0;entryDy=0;" edge="1" parent="1" source="WlBfpteR9ME0M3st5vMV-52" target="WlBfpteR9ME0M3st5vMV-55">
          <mxGeometry relative="1" as="geometry" />
        </mxCell>
        <mxCell id="WlBfpteR9ME0M3st5vMV-58" style="edgeStyle=orthogonalEdgeStyle;rounded=0;orthogonalLoop=1;jettySize=auto;html=1;exitX=0.5;exitY=1;exitDx=0;exitDy=0;entryX=0.5;entryY=0;entryDx=0;entryDy=0;" edge="1" parent="1" source="WlBfpteR9ME0M3st5vMV-52" target="WlBfpteR9ME0M3st5vMV-54">
          <mxGeometry relative="1" as="geometry" />
        </mxCell>
        <mxCell id="WlBfpteR9ME0M3st5vMV-59" style="edgeStyle=orthogonalEdgeStyle;rounded=0;orthogonalLoop=1;jettySize=auto;html=1;exitX=1;exitY=1;exitDx=0;exitDy=0;entryX=0.5;entryY=0;entryDx=0;entryDy=0;" edge="1" parent="1" source="WlBfpteR9ME0M3st5vMV-52" target="WlBfpteR9ME0M3st5vMV-56">
          <mxGeometry relative="1" as="geometry" />
        </mxCell>
        <mxCell id="WlBfpteR9ME0M3st5vMV-52" value="HIJOS" style="rounded=0;whiteSpace=wrap;html=1;" vertex="1" parent="1">
          <mxGeometry x="80" y="640" width="120" height="60" as="geometry" />
        </mxCell>
        <mxCell id="WlBfpteR9ME0M3st5vMV-54" value="&lt;div&gt;NOMBRE_&lt;/div&gt;&lt;div&gt;HIJO&lt;/div&gt;" style="ellipse;whiteSpace=wrap;html=1;" vertex="1" parent="1">
          <mxGeometry x="95" y="770" width="90" height="55" as="geometry" />
        </mxCell>
        <mxCell id="WlBfpteR9ME0M3st5vMV-55" value="&lt;div&gt;CÓDIGO_&lt;/div&gt;&lt;div&gt;HIJO&lt;/div&gt;" style="ellipse;whiteSpace=wrap;html=1;" vertex="1" parent="1">
          <mxGeometry x="20" y="725" width="90" height="55" as="geometry" />
        </mxCell>
        <mxCell id="WlBfpteR9ME0M3st5vMV-56" value="&lt;div&gt;FECHA_&lt;/div&gt;&lt;div&gt;NACIMIENTO&lt;/div&gt;" style="ellipse;whiteSpace=wrap;html=1;" vertex="1" parent="1">
          <mxGeometry x="180" y="725" width="90" height="55" as="geometry" />
        </mxCell>
        <mxCell id="WlBfpteR9ME0M3st5vMV-62" style="edgeStyle=orthogonalEdgeStyle;rounded=0;orthogonalLoop=1;jettySize=auto;html=1;entryX=1;entryY=0.5;entryDx=0;entryDy=0;" edge="1" parent="1" source="WlBfpteR9ME0M3st5vMV-60" target="WlBfpteR9ME0M3st5vMV-52">
          <mxGeometry relative="1" as="geometry" />
        </mxCell>
        <mxCell id="WlBfpteR9ME0M3st5vMV-60" value="TIENE" style="rhombus;whiteSpace=wrap;html=1;" vertex="1" parent="1">
          <mxGeometry x="310" y="610" width="80" height="50" as="geometry" />
        </mxCell>
      </root>
    </mxGraphModel>
  </diagram>
</mxfile>
